<svg width="78" height="38" viewBox="0 0 78 38" fill="none" xmlns="http://www.w3.org/2000/svg">
<g filter="url(#filter0_d)">
<path d="M20.2852 21.5391C20.2852 20.4323 19.8945 19.5859 19.1133 19C18.332 18.401 16.9258 17.776 14.8945 17.125C12.8633 16.4609 11.2552 15.8099 10.0703 15.1719C6.84115 13.4271 5.22656 11.0768 5.22656 8.12109C5.22656 6.58464 5.65625 5.21745 6.51562 4.01953C7.38802 2.80859 8.63151 1.86458 10.2461 1.1875C11.8737 0.510417 13.6966 0.171875 15.7148 0.171875C17.7461 0.171875 19.556 0.542969 21.1445 1.28516C22.7331 2.01432 23.9635 3.04948 24.8359 4.39062C25.7214 5.73177 26.1641 7.25521 26.1641 8.96094H20.3047C20.3047 7.65885 19.8945 6.64974 19.0742 5.93359C18.2539 5.20443 17.1016 4.83984 15.6172 4.83984C14.1849 4.83984 13.0716 5.14583 12.2773 5.75781C11.4831 6.35677 11.0859 7.15104 11.0859 8.14062C11.0859 9.0651 11.5482 9.83984 12.4727 10.4648C13.4102 11.0898 14.7839 11.6758 16.5938 12.2227C19.9271 13.2253 22.3555 14.4688 23.8789 15.9531C25.4023 17.4375 26.1641 19.2865 26.1641 21.5C26.1641 23.9609 25.2331 25.8945 23.3711 27.3008C21.5091 28.694 19.0026 29.3906 15.8516 29.3906C13.6641 29.3906 11.6719 28.9935 9.875 28.1992C8.07812 27.3919 6.70443 26.2917 5.75391 24.8984C4.81641 23.5052 4.34766 21.8906 4.34766 20.0547H10.2266C10.2266 23.1927 12.1016 24.7617 15.8516 24.7617C17.2448 24.7617 18.332 24.4818 19.1133 23.9219C19.8945 23.349 20.2852 22.5547 20.2852 21.5391ZM36.0078 24.293H48.4492V29H30.1484V0.5625H36.0078V24.293Z" fill="black"/>
<path d="M57.6875 18.9805V29H51.8281V0.5625H62.9219C65.0573 0.5625 66.9323 0.953125 68.5469 1.73438C70.1745 2.51562 71.4245 3.62891 72.2969 5.07422C73.1693 6.50651 73.6055 8.14062 73.6055 9.97656C73.6055 12.763 72.6484 14.9635 70.7344 16.5781C68.8333 18.1797 66.1966 18.9805 62.8242 18.9805H57.6875ZM57.6875 14.2344H62.9219C64.4714 14.2344 65.6497 13.8698 66.457 13.1406C67.2773 12.4115 67.6875 11.3698 67.6875 10.0156C67.6875 8.6224 67.2773 7.49609 66.457 6.63672C65.6367 5.77734 64.5039 5.33464 63.0586 5.30859H57.6875V14.2344Z" fill="#00D07E"/>
</g>
<defs>
<filter id="filter0_d" x="0.347656" y="0.171875" width="77.2578" height="37.2188" filterUnits="userSpaceOnUse" color-interpolation-filters="sRGB">
<feFlood flood-opacity="0" result="BackgroundImageFix"/>
<feColorMatrix in="SourceAlpha" type="matrix" values="0 0 0 0 0 0 0 0 0 0 0 0 0 0 0 0 0 0 127 0"/>
<feOffset dy="4"/>
<feGaussianBlur stdDeviation="2"/>
<feColorMatrix type="matrix" values="0 0 0 0 0 0 0 0 0 0 0 0 0 0 0 0 0 0 0.25 0"/>
<feBlend mode="normal" in2="BackgroundImageFix" result="effect1_dropShadow"/>
<feBlend mode="normal" in="SourceGraphic" in2="effect1_dropShadow" result="shape"/>
</filter>
</defs>
</svg>
