<svg width="271" height="82" viewBox="0 0 271 82" fill="none" xmlns="http://www.w3.org/2000/svg">
<g filter="url(#filter0_d)">
<path d="M132.952 55.7397V61H129.876V46.0703H135.7C136.822 46.0703 137.806 46.2754 138.654 46.6855C139.508 47.0957 140.164 47.6802 140.622 48.439C141.08 49.1909 141.309 50.0488 141.309 51.0127C141.309 52.4756 140.807 53.6309 139.802 54.4785C138.804 55.3193 137.42 55.7397 135.649 55.7397H132.952ZM132.952 53.248H135.7C136.514 53.248 137.133 53.0566 137.556 52.6738C137.987 52.291 138.202 51.7441 138.202 51.0332C138.202 50.3018 137.987 49.7104 137.556 49.2593C137.126 48.8081 136.531 48.5757 135.772 48.562H132.952V53.248ZM142.632 55.3501C142.632 54.2495 142.844 53.2686 143.268 52.4072C143.692 51.5459 144.3 50.8794 145.093 50.4077C145.893 49.936 146.819 49.7002 147.872 49.7002C149.369 49.7002 150.589 50.1582 151.532 51.0742C152.483 51.9902 153.012 53.2344 153.122 54.8066L153.142 55.5654C153.142 57.2676 152.667 58.6348 151.717 59.667C150.767 60.6924 149.492 61.2051 147.892 61.2051C146.293 61.2051 145.014 60.6924 144.057 59.667C143.107 58.6416 142.632 57.2471 142.632 55.4834V55.3501ZM145.595 55.5654C145.595 56.6182 145.794 57.4248 146.19 57.9854C146.587 58.5391 147.154 58.8159 147.892 58.8159C148.61 58.8159 149.171 58.5425 149.574 57.9956C149.977 57.4419 150.179 56.5601 150.179 55.3501C150.179 54.3179 149.977 53.5181 149.574 52.9507C149.171 52.3833 148.603 52.0996 147.872 52.0996C147.147 52.0996 146.587 52.3833 146.19 52.9507C145.794 53.5112 145.595 54.3828 145.595 55.5654ZM158.095 61H155.121V49.9053H158.095V61ZM154.947 47.0342C154.947 46.5898 155.094 46.2241 155.388 45.937C155.689 45.6499 156.095 45.5063 156.608 45.5063C157.114 45.5063 157.517 45.6499 157.818 45.937C158.119 46.2241 158.269 46.5898 158.269 47.0342C158.269 47.4854 158.115 47.8545 157.808 48.1416C157.507 48.4287 157.107 48.5723 156.608 48.5723C156.109 48.5723 155.706 48.4287 155.398 48.1416C155.097 47.8545 154.947 47.4854 154.947 47.0342ZM163.273 49.9053L163.365 51.187C164.158 50.1958 165.221 49.7002 166.554 49.7002C167.73 49.7002 168.605 50.0454 169.179 50.7358C169.754 51.4263 170.048 52.4585 170.061 53.8325V61H167.098V53.9043C167.098 53.2754 166.961 52.8208 166.688 52.5405C166.414 52.2534 165.96 52.1099 165.324 52.1099C164.49 52.1099 163.864 52.4653 163.447 53.1763V61H160.484V49.9053H163.273ZM175.865 47.1777V49.9053H177.762V52.0791H175.865V57.6162C175.865 58.0264 175.944 58.3203 176.101 58.498C176.258 58.6758 176.559 58.7646 177.003 58.7646C177.331 58.7646 177.622 58.7407 177.875 58.6929V60.9385C177.294 61.1162 176.696 61.2051 176.08 61.2051C174.002 61.2051 172.943 60.1558 172.902 58.0571V52.0791H171.281V49.9053H172.902V47.1777H175.865Z" fill="#00D07E"/>
</g>
<g filter="url(#filter1_d)">
<path d="M32.249 51.9434C32.249 50.0065 31.5654 48.5254 30.1982 47.5C28.8311 46.4518 26.3701 45.3581 22.8154 44.2188C19.2607 43.0566 16.4466 41.9173 14.373 40.8008C8.72201 37.7474 5.89648 33.6344 5.89648 28.4619C5.89648 25.7731 6.64844 23.3805 8.15234 21.2842C9.67904 19.165 11.8551 17.513 14.6807 16.3281C17.529 15.1432 20.7191 14.5508 24.251 14.5508C27.8057 14.5508 30.973 15.2002 33.7529 16.499C36.5329 17.7751 38.6862 19.5866 40.2129 21.9336C41.7624 24.2806 42.5371 26.9466 42.5371 29.9316H32.2832C32.2832 27.653 31.5654 25.887 30.1299 24.6338C28.6943 23.3577 26.6777 22.7197 24.0801 22.7197C21.5736 22.7197 19.6253 23.2552 18.2354 24.3262C16.8454 25.3743 16.1504 26.7643 16.1504 28.4961C16.1504 30.1139 16.9593 31.4697 18.5771 32.5635C20.2178 33.6572 22.6217 34.6826 25.7891 35.6396C31.6224 37.3942 35.8721 39.5703 38.5381 42.168C41.2041 44.7656 42.5371 48.0013 42.5371 51.875C42.5371 56.1816 40.9079 59.5654 37.6494 62.0264C34.391 64.4645 30.0046 65.6836 24.4902 65.6836C20.6621 65.6836 17.1758 64.9886 14.0312 63.5986C10.8867 62.1859 8.48275 60.2604 6.81934 57.8223C5.17871 55.3841 4.3584 52.5586 4.3584 49.3457H14.6465C14.6465 54.8372 17.9277 57.583 24.4902 57.583C26.9284 57.583 28.8311 57.0931 30.1982 56.1133C31.5654 55.1107 32.249 53.7207 32.249 51.9434ZM59.7637 56.7627H81.5361V65H49.5098V15.2344H59.7637V56.7627Z" fill="black"/>
<path d="M97.7031 47.4658V65H87.4492V15.2344H106.863C110.6 15.2344 113.882 15.918 116.707 17.2852C119.555 18.6523 121.743 20.6006 123.27 23.1299C124.796 25.6364 125.56 28.4961 125.56 31.709C125.56 36.5853 123.885 40.4362 120.535 43.2617C117.208 46.0645 112.594 47.4658 106.692 47.4658H97.7031ZM97.7031 39.1602H106.863C109.575 39.1602 111.637 38.5221 113.05 37.2461C114.485 35.9701 115.203 34.1471 115.203 31.7773C115.203 29.3392 114.485 27.3682 113.05 25.8643C111.614 24.3604 109.632 23.5856 107.103 23.54H97.7031V39.1602Z" fill="#00D07E"/>
</g>
<g filter="url(#filter2_d)">
<path d="M136.621 37.083C136.621 36.502 136.416 36.0576 136.006 35.75C135.596 35.4355 134.858 35.1074 133.791 34.7656C132.725 34.417 131.881 34.0752 131.259 33.7402C129.563 32.8242 128.716 31.5903 128.716 30.0386C128.716 29.2319 128.941 28.5142 129.392 27.8853C129.85 27.2495 130.503 26.7539 131.351 26.3984C132.205 26.043 133.163 25.8652 134.222 25.8652C135.288 25.8652 136.239 26.0601 137.073 26.4497C137.907 26.8325 138.553 27.376 139.011 28.0801C139.475 28.7842 139.708 29.584 139.708 30.4795H136.632C136.632 29.7959 136.416 29.2661 135.986 28.8901C135.555 28.5073 134.95 28.3159 134.171 28.3159C133.419 28.3159 132.834 28.4766 132.417 28.7979C132 29.1123 131.792 29.5293 131.792 30.0488C131.792 30.5342 132.035 30.9409 132.52 31.269C133.012 31.5972 133.733 31.9048 134.684 32.1919C136.434 32.7183 137.708 33.3711 138.508 34.1504C139.308 34.9297 139.708 35.9004 139.708 37.0625C139.708 38.3545 139.219 39.3696 138.242 40.1079C137.264 40.8394 135.948 41.2051 134.294 41.2051C133.145 41.2051 132.1 40.9966 131.156 40.5796C130.213 40.1558 129.492 39.5781 128.993 38.8467C128.5 38.1152 128.254 37.2676 128.254 36.3037H131.341C131.341 37.9512 132.325 38.7749 134.294 38.7749C135.025 38.7749 135.596 38.6279 136.006 38.334C136.416 38.0332 136.621 37.6162 136.621 37.083ZM144.384 29.9053L144.476 31.146C145.262 30.1821 146.325 29.7002 147.665 29.7002C149.094 29.7002 150.075 30.2642 150.608 31.3921C151.387 30.2642 152.498 29.7002 153.94 29.7002C155.143 29.7002 156.039 30.0522 156.627 30.7563C157.215 31.4536 157.509 32.5063 157.509 33.9146V41H154.535V33.9248C154.535 33.2959 154.412 32.8379 154.166 32.5508C153.92 32.2568 153.486 32.1099 152.864 32.1099C151.975 32.1099 151.36 32.5337 151.018 33.3813L151.028 41H148.065V33.9351C148.065 33.2925 147.938 32.8276 147.685 32.5405C147.433 32.2534 147.002 32.1099 146.393 32.1099C145.553 32.1099 144.944 32.4585 144.568 33.1558V41H141.605V29.9053H144.384ZM166.225 41C166.088 40.7334 165.989 40.4019 165.927 40.0054C165.209 40.8052 164.276 41.2051 163.128 41.2051C162.041 41.2051 161.139 40.8906 160.421 40.2617C159.71 39.6328 159.354 38.8398 159.354 37.8828C159.354 36.707 159.788 35.8047 160.657 35.1758C161.532 34.5469 162.793 34.229 164.44 34.2222H165.804V33.5864C165.804 33.0737 165.671 32.6636 165.404 32.356C165.144 32.0483 164.731 31.8945 164.163 31.8945C163.664 31.8945 163.271 32.0142 162.984 32.2534C162.704 32.4927 162.564 32.8208 162.564 33.2378H159.6C159.6 32.5952 159.799 32.0005 160.195 31.4536C160.592 30.9067 161.152 30.4795 161.877 30.1719C162.601 29.8574 163.415 29.7002 164.317 29.7002C165.684 29.7002 166.768 30.0454 167.568 30.7358C168.374 31.4194 168.778 32.3833 168.778 33.6274V38.4365C168.785 39.4893 168.932 40.2856 169.219 40.8257V41H166.225ZM163.774 38.939C164.211 38.939 164.615 38.8433 164.984 38.6519C165.353 38.4536 165.626 38.1904 165.804 37.8623V35.9551H164.697C163.213 35.9551 162.424 36.4678 162.328 37.4932L162.318 37.6675C162.318 38.0366 162.448 38.3408 162.707 38.5801C162.967 38.8193 163.323 38.939 163.774 38.939ZM177.288 32.6841C176.885 32.6294 176.53 32.6021 176.222 32.6021C175.101 32.6021 174.366 32.9814 174.017 33.7402V41H171.054V29.9053H173.853L173.935 31.228C174.53 30.2095 175.354 29.7002 176.407 29.7002C176.735 29.7002 177.042 29.7446 177.329 29.8335L177.288 32.6841ZM182.785 27.1777V29.9053H184.682V32.0791H182.785V37.6162C182.785 38.0264 182.863 38.3203 183.02 38.498C183.178 38.6758 183.478 38.7646 183.923 38.7646C184.251 38.7646 184.541 38.7407 184.794 38.6929V40.9385C184.213 41.1162 183.615 41.2051 183 41.2051C180.922 41.2051 179.862 40.1558 179.821 38.0571V32.0791H178.201V29.9053H179.821V27.1777H182.785ZM189.603 38.5288H196.135V41H186.527V26.0703H189.603V38.5288ZM202.821 41.2051C201.194 41.2051 199.868 40.7061 198.842 39.708C197.824 38.71 197.314 37.3804 197.314 35.7192V35.4321C197.314 34.3179 197.53 33.3232 197.96 32.4482C198.391 31.5664 198.999 30.8896 199.786 30.418C200.579 29.9395 201.481 29.7002 202.493 29.7002C204.01 29.7002 205.203 30.1787 206.071 31.1357C206.946 32.0928 207.384 33.4497 207.384 35.2065V36.4165H200.319C200.414 37.1411 200.702 37.7222 201.18 38.1597C201.665 38.5972 202.277 38.8159 203.016 38.8159C204.157 38.8159 205.049 38.4023 205.692 37.5752L207.148 39.2056C206.704 39.8345 206.102 40.3267 205.343 40.6821C204.584 41.0308 203.744 41.2051 202.821 41.2051ZM202.482 32.0996C201.894 32.0996 201.416 32.2979 201.047 32.6943C200.684 33.0908 200.452 33.6582 200.35 34.3965H204.472V34.1606C204.458 33.5044 204.28 32.9985 203.938 32.6431C203.597 32.2808 203.111 32.0996 202.482 32.0996ZM215.505 41C215.368 40.7334 215.269 40.4019 215.207 40.0054C214.49 40.8052 213.557 41.2051 212.408 41.2051C211.321 41.2051 210.419 40.8906 209.701 40.2617C208.99 39.6328 208.635 38.8398 208.635 37.8828C208.635 36.707 209.069 35.8047 209.937 35.1758C210.812 34.5469 212.073 34.229 213.721 34.2222H215.084V33.5864C215.084 33.0737 214.951 32.6636 214.684 32.356C214.425 32.0483 214.011 31.8945 213.444 31.8945C212.945 31.8945 212.552 32.0142 212.265 32.2534C211.984 32.4927 211.844 32.8208 211.844 33.2378H208.881C208.881 32.5952 209.079 32.0005 209.475 31.4536C209.872 30.9067 210.433 30.4795 211.157 30.1719C211.882 29.8574 212.695 29.7002 213.598 29.7002C214.965 29.7002 216.048 30.0454 216.848 30.7358C217.655 31.4194 218.058 32.3833 218.058 33.6274V38.4365C218.065 39.4893 218.212 40.2856 218.499 40.8257V41H215.505ZM213.054 38.939C213.492 38.939 213.895 38.8433 214.264 38.6519C214.633 38.4536 214.907 38.1904 215.084 37.8623V35.9551H213.977C212.494 35.9551 211.704 36.4678 211.608 37.4932L211.598 37.6675C211.598 38.0366 211.728 38.3408 211.988 38.5801C212.247 38.8193 212.603 38.939 213.054 38.939ZM226.569 32.6841C226.165 32.6294 225.81 32.6021 225.502 32.6021C224.381 32.6021 223.646 32.9814 223.298 33.7402V41H220.334V29.9053H223.134L223.216 31.228C223.81 30.2095 224.634 29.7002 225.687 29.7002C226.015 29.7002 226.323 29.7446 226.61 29.8335L226.569 32.6841ZM230.732 29.9053L230.824 31.187C231.617 30.1958 232.68 29.7002 234.013 29.7002C235.189 29.7002 236.064 30.0454 236.638 30.7358C237.212 31.4263 237.506 32.4585 237.52 33.8325V41H234.557V33.9043C234.557 33.2754 234.42 32.8208 234.146 32.5405C233.873 32.2534 233.418 32.1099 232.783 32.1099C231.949 32.1099 231.323 32.4653 230.906 33.1763V41H227.943V29.9053H230.732ZM242.903 41H239.93V29.9053H242.903V41ZM239.755 27.0342C239.755 26.5898 239.902 26.2241 240.196 25.937C240.497 25.6499 240.904 25.5063 241.416 25.5063C241.922 25.5063 242.326 25.6499 242.626 25.937C242.927 26.2241 243.078 26.5898 243.078 27.0342C243.078 27.4854 242.924 27.8545 242.616 28.1416C242.315 28.4287 241.915 28.5723 241.416 28.5723C240.917 28.5723 240.514 28.4287 240.206 28.1416C239.906 27.8545 239.755 27.4854 239.755 27.0342ZM248.081 29.9053L248.174 31.187C248.967 30.1958 250.03 29.7002 251.363 29.7002C252.538 29.7002 253.413 30.0454 253.988 30.7358C254.562 31.4263 254.856 32.4585 254.87 33.8325V41H251.906V33.9043C251.906 33.2754 251.769 32.8208 251.496 32.5405C251.223 32.2534 250.768 32.1099 250.132 32.1099C249.298 32.1099 248.673 32.4653 248.256 33.1763V41H245.292V29.9053H248.081ZM256.695 35.3706C256.695 33.6685 257.098 32.2979 257.905 31.2588C258.718 30.2197 259.812 29.7002 261.186 29.7002C262.403 29.7002 263.35 30.1172 264.026 30.9512L264.149 29.9053H266.836V40.6309C266.836 41.6016 266.614 42.4458 266.169 43.1636C265.732 43.8813 265.113 44.4282 264.313 44.8042C263.514 45.1802 262.577 45.3682 261.504 45.3682C260.69 45.3682 259.897 45.2041 259.125 44.876C258.352 44.5547 257.768 44.1377 257.371 43.625L258.684 41.8203C259.422 42.6475 260.318 43.061 261.371 43.061C262.157 43.061 262.768 42.8491 263.206 42.4253C263.643 42.0083 263.862 41.4136 263.862 40.6411V40.0464C263.179 40.8188 262.28 41.2051 261.165 41.2051C259.832 41.2051 258.752 40.6855 257.925 39.6465C257.105 38.6006 256.695 37.2163 256.695 35.4937V35.3706ZM259.658 35.5859C259.658 36.5908 259.86 37.3804 260.263 37.9546C260.666 38.522 261.22 38.8057 261.924 38.8057C262.827 38.8057 263.473 38.4673 263.862 37.7905V33.125C263.466 32.4482 262.827 32.1099 261.945 32.1099C261.234 32.1099 260.673 32.4004 260.263 32.9814C259.86 33.5625 259.658 34.4307 259.658 35.5859Z" fill="black"/>
</g>
<defs>
<filter id="filter0_d" x="125.876" y="45.5063" width="55.9985" height="23.6987" filterUnits="userSpaceOnUse" color-interpolation-filters="sRGB">
<feFlood flood-opacity="0" result="BackgroundImageFix"/>
<feColorMatrix in="SourceAlpha" type="matrix" values="0 0 0 0 0 0 0 0 0 0 0 0 0 0 0 0 0 0 127 0"/>
<feOffset dy="4"/>
<feGaussianBlur stdDeviation="2"/>
<feColorMatrix type="matrix" values="0 0 0 0 0 0 0 0 0 0 0 0 0 0 0 0 0 0 0.25 0"/>
<feBlend mode="normal" in2="BackgroundImageFix" result="effect1_dropShadow"/>
<feBlend mode="normal" in="SourceGraphic" in2="effect1_dropShadow" result="shape"/>
</filter>
<filter id="filter1_d" x="0.358398" y="14.5508" width="129.201" height="59.1328" filterUnits="userSpaceOnUse" color-interpolation-filters="sRGB">
<feFlood flood-opacity="0" result="BackgroundImageFix"/>
<feColorMatrix in="SourceAlpha" type="matrix" values="0 0 0 0 0 0 0 0 0 0 0 0 0 0 0 0 0 0 127 0"/>
<feOffset dy="4"/>
<feGaussianBlur stdDeviation="2"/>
<feColorMatrix type="matrix" values="0 0 0 0 0 0 0 0 0 0 0 0 0 0 0 0 0 0 0.25 0"/>
<feBlend mode="normal" in2="BackgroundImageFix" result="effect1_dropShadow"/>
<feBlend mode="normal" in="SourceGraphic" in2="effect1_dropShadow" result="shape"/>
</filter>
<filter id="filter2_d" x="124.254" y="25.5063" width="146.582" height="27.8618" filterUnits="userSpaceOnUse" color-interpolation-filters="sRGB">
<feFlood flood-opacity="0" result="BackgroundImageFix"/>
<feColorMatrix in="SourceAlpha" type="matrix" values="0 0 0 0 0 0 0 0 0 0 0 0 0 0 0 0 0 0 127 0"/>
<feOffset dy="4"/>
<feGaussianBlur stdDeviation="2"/>
<feColorMatrix type="matrix" values="0 0 0 0 0 0 0 0 0 0 0 0 0 0 0 0 0 0 0.25 0"/>
<feBlend mode="normal" in2="BackgroundImageFix" result="effect1_dropShadow"/>
<feBlend mode="normal" in="SourceGraphic" in2="effect1_dropShadow" result="shape"/>
</filter>
</defs>
</svg>
